<!DOCTYPE svg PUBLIC "-//W3C//DTD SVG 1.1//EN" "http://www.w3.org/Graphics/SVG/1.1/DTD/svg11.dtd">
<!-- Uploaded to: SVG Repo, www.svgrepo.com, Transformed by: SVG Repo Mixer Tools -->
<svg fill="#ffffff" height="800px" width="800px" version="1.1" id="Layer_1" xmlns="http://www.w3.org/2000/svg" xmlns:xlink="http://www.w3.org/1999/xlink" viewBox="0 0 210.233 210.233" xml:space="preserve" stroke="#ffffff">
<g id="SVGRepo_bgCarrier" stroke-width="0"/>
<g id="SVGRepo_tracerCarrier" stroke-linecap="round" stroke-linejoin="round"/>
<g id="SVGRepo_iconCarrier"> <g> <g> <g> <path d="M206.267,69.416h-55.734c-2.027-24.393-22.491-43.633-47.399-43.633c-24.908,0-45.373,19.24-47.4,43.633H3.967 C1.776,69.416,0,71.192,0,73.382v95.2c0,2.19,1.776,3.967,3.967,3.967H23.8v11.9h7.933v-11.9H178.5v11.9h7.933v-11.9h19.833 c2.19,0,3.967-1.776,3.967-3.967v-95.2C210.233,71.192,208.457,69.416,206.267,69.416z M103.133,33.716 c21.873,0,39.667,17.794,39.667,39.667c0,21.873-17.794,39.667-39.667,39.667S63.467,95.255,63.467,73.382 S81.26,33.716,103.133,33.716z M202.3,164.617h-15.867H178.5H31.733H23.8H7.933V77.349h47.801 c2.027,24.393,22.491,43.633,47.399,43.633s45.372-19.241,47.399-43.633H202.3V164.617z"/> <path d="M103.133,105.117c17.497,0,31.733-14.236,31.733-31.733S120.631,41.65,103.133,41.65S71.4,55.885,71.4,73.382 S85.636,105.117,103.133,105.117z M103.133,49.583c13.124,0,23.8,10.676,23.8,23.8c0,13.124-10.676,23.8-23.8,23.8 s-23.8-10.676-23.8-23.8S90.009,49.583,103.133,49.583z"/> <path d="M19.833,81.317h-3.967c-2.19,0-3.967,1.776-3.967,3.967v3.967c0,2.19,1.776,3.967,3.967,3.967h3.967 c2.19,0,3.967-1.776,3.967-3.967v-3.967C23.8,83.093,22.024,81.317,19.833,81.317z"/> <path d="M190.4,93.216h3.967c2.19,0,3.967-1.776,3.967-3.967v-3.967c0-2.19-1.776-3.967-3.967-3.967H190.4 c-2.19,0-3.967,1.776-3.967,3.967v3.967C186.433,91.439,188.21,93.216,190.4,93.216z"/> <path d="M19.833,148.749h-3.967c-2.19,0-3.967,1.776-3.967,3.967v3.967c0,2.19,1.776,3.967,3.967,3.967h3.967 c2.19,0,3.967-1.776,3.967-3.967v-3.967C23.8,150.525,22.024,148.749,19.833,148.749z"/> <path d="M190.4,160.649h3.967c2.19,0,3.967-1.776,3.967-3.967v-3.967c0-2.19-1.776-3.967-3.967-3.967H190.4 c-2.19,0-3.967,1.776-3.967,3.967v3.967C186.433,158.873,188.21,160.649,190.4,160.649z"/> </g> </g> </g> </g>
</svg>